<?xml version="1.0" standalone="no"?>
<!DOCTYPE svg PUBLIC "-//W3C//DTD SVG 20010904//EN"
 "http://www.w3.org/TR/2001/REC-SVG-20010904/DTD/svg10.dtd">
<svg version="1.0" xmlns="http://www.w3.org/2000/svg"
 width="512.000000pt" height="512.000000pt" viewBox="0 0 512.000000 512.000000"
 preserveAspectRatio="xMidYMid meet">
<metadata>
Created by potrace 1.11, written by Peter Selinger 2001-2013
</metadata>
<g transform="translate(0.000000,512.000000) scale(0.100000,-0.100000)"
fill="#000000" stroke="none">
<path d="M510 5104 c-229 -49 -430 -246 -490 -480 -20 -76 -20 -119 -20 -2064
0 -1945 0 -1988 20 -2064 46 -181 177 -344 340 -425 155 -76 -2 -71 2206 -71
1939 0 1982 0 2058 20 119 30 209 82 301 175 93 92 145 182 175 301 20 76 20
119 20 2064 0 1945 0 1988 -20 2064 -30 119 -82 209 -175 301 -92 93 -182 145
-301 175 -76 20 -118 20 -2063 19 -1660 0 -1997 -3 -2051 -15z m2951 -1244
c318 -77 586 -140 596 -140 11 0 27 -6 37 -13 18 -13 17 -52 -44 -1098 -40
-683 -67 -1088 -74 -1095 -12 -13 -1935 -536 -1976 -538 -20 -1 -84 60 -339
324 -173 179 -365 377 -427 440 l-113 115 -56 972 c-30 535 -58 979 -61 987
-10 26 32 56 80 56 54 0 1725 128 1746 134 19 5 -46 20 631 -144z"/>
<path d="M1983 3850 c-398 -31 -725 -59 -728 -62 -3 -2 155 -73 351 -157 l355
-152 366 40 c202 23 368 42 370 44 2 2 19 60 39 128 19 68 41 145 49 172 l14
47 -47 -1 c-26 -1 -372 -27 -769 -59z"/>
<path d="M2900 3740 l0 -159 28 4 c15 3 216 26 447 50 230 25 421 48 424 50 2
3 2 5 -1 5 -3 0 -202 47 -441 105 -239 58 -440 105 -446 105 -8 0 -11 -50 -11
-160z"/>
<path d="M1104 3654 c3 -38 27 -433 52 -879 25 -445 47 -812 50 -814 4 -4 104
56 389 232 l150 93 -2 229 c-1 127 -5 338 -8 470 l-7 241 -306 244 c-168 135
-309 247 -315 249 -6 2 -7 -23 -3 -65z"/>
<path d="M1360 3637 c0 -3 96 -82 213 -176 209 -166 215 -170 253 -165 86 12
84 10 84 63 l0 48 -266 114 c-308 132 -284 122 -284 116z"/>
<path d="M2797 3590 c-3 -11 -1 -20 4 -20 5 0 9 9 9 20 0 11 -2 20 -4 20 -2 0
-6 -9 -9 -20z"/>
<path d="M3353 3547 c-512 -57 -463 -41 -463 -148 0 -34 5 -60 13 -66 6 -5 84
-36 172 -67 l161 -58 319 196 c264 163 313 196 284 195 -19 -1 -237 -24 -486
-52z"/>
<path d="M3655 3364 c-192 -118 -355 -221 -361 -227 -8 -8 -15 -163 -23 -501
l-12 -490 23 -21 c41 -39 608 -485 616 -485 4 0 32 408 60 908 29 499 56 935
59 970 3 34 2 62 -3 62 -5 -1 -166 -98 -359 -216z"/>
<path d="M2753 3438 c-13 -48 -10 -54 30 -63 l27 -7 0 56 c0 52 -2 56 -23 56
-18 0 -25 -8 -34 -42z"/>
<path d="M2340 3434 c-157 -18 -288 -33 -292 -33 -13 -1 -8 -15 16 -44 l22
-28 279 35 c153 20 282 39 286 43 4 5 11 20 14 36 9 33 39 34 -325 -9z"/>
<path d="M2372 3280 c-117 -15 -215 -30 -218 -33 -3 -3 25 -46 62 -97 55 -73
72 -90 88 -86 12 2 92 15 179 27 l157 23 0 98 0 98 -27 -1 c-16 -1 -124 -14
-241 -29z"/>
<path d="M2730 3214 c0 -81 1 -84 23 -84 39 0 47 13 49 79 l3 64 -37 13 -38
13 0 -85z"/>
<path d="M2013 3233 c-7 -2 -13 -13 -13 -24 0 -13 19 -28 61 -50 l61 -31 -22
34 c-29 42 -62 78 -69 77 -3 0 -12 -3 -18 -6z"/>
<path d="M2890 3194 c0 -34 3 -45 13 -41 8 3 44 8 81 12 37 4 64 11 59 16 -7
6 -139 59 -149 59 -2 0 -4 -21 -4 -46z"/>
<path d="M1820 3074 c1 -152 19 -746 23 -751 3 -2 23 -1 45 3 l41 6 -5 382
c-3 209 -7 391 -10 403 -2 12 -16 25 -31 31 -16 5 -36 13 -45 17 -16 7 -18 -1
-18 -91z"/>
<path d="M3033 3086 c-72 -11 -134 -23 -136 -26 -2 -3 -7 -160 -11 -350 l-7
-345 143 -83 c123 -70 144 -79 149 -64 4 9 10 208 15 442 4 234 8 429 9 435 0
15 -21 14 -162 -9z"/>
<path d="M2007 2727 c3 -199 8 -365 12 -369 4 -4 49 0 101 10 l95 18 3 300 2
300 -37 18 c-21 11 -70 33 -109 52 l-71 32 4 -361z"/>
<path d="M2748 3043 c-17 -4 -18 -27 -18 -298 l0 -294 30 -16 c16 -8 31 -15
35 -15 3 0 5 142 5 315 0 343 3 323 -52 308z"/>
<path d="M2585 3018 c-27 -3 -101 -14 -162 -23 l-113 -17 0 -290 c0 -271 1
-289 18 -284 9 3 82 17 162 31 79 14 146 28 147 29 2 2 2 129 1 282 l-3 279
-50 -7z"/>
<path d="M2483 2346 l-173 -31 0 -88 c0 -79 2 -88 18 -83 9 3 103 21 207 41
105 20 198 39 207 43 16 6 12 16 -30 79 -26 40 -49 72 -52 72 -3 -1 -83 -15
-177 -33z"/>
<path d="M2135 2284 c-125 -24 -115 -18 -115 -79 0 -50 3 -56 34 -80 33 -25
36 -26 100 -14 l66 12 0 89 c0 48 -3 87 -7 87 -5 -1 -39 -7 -78 -15z"/>
<path d="M2880 2242 c0 -11 28 -34 79 -65 74 -44 109 -56 124 -41 5 6 -186
124 -200 124 -1 0 -3 -8 -3 -18z"/>
<path d="M1915 2230 c3 -5 8 -10 11 -10 2 0 4 5 4 10 0 6 -5 10 -11 10 -5 0
-7 -4 -4 -10z"/>
<path d="M1597 2093 c-103 -64 -185 -118 -183 -120 3 -4 458 81 499 93 35 10
18 43 -49 94 -37 27 -70 50 -73 50 -3 -1 -90 -53 -194 -117z"/>
<path d="M2550 2101 l-235 -46 -3 -43 c-2 -24 1 -42 7 -42 13 0 560 119 581
126 21 8 -58 54 -90 53 -14 -1 -131 -22 -260 -48z"/>
<path d="M3170 2061 c0 -7 152 -102 205 -129 18 -9 -8 13 -88 77 -71 55 -117
76 -117 52z"/>
<path d="M2190 2026 c0 -2 7 -9 15 -16 12 -10 15 -10 15 4 0 9 -7 16 -15 16
-8 0 -15 -2 -15 -4z"/>
<path d="M2646 1952 l-349 -78 -118 -394 c-65 -217 -117 -395 -116 -397 5 -4
1757 471 1757 477 0 12 -776 465 -800 467 -14 1 -182 -33 -374 -75z"/>
<path d="M2026 1658 c4 -189 8 -344 9 -346 2 -2 175 571 175 580 0 16 -140
108 -164 108 l-26 0 6 -342z"/>
<path d="M1587 1915 c-174 -34 -320 -65 -324 -68 -3 -4 118 -134 269 -289 151
-156 306 -317 346 -358 l71 -75 -5 405 c-3 223 -7 415 -10 428 -2 12 -10 21
-17 21 -6 -1 -155 -29 -330 -64z"/>
</g>
</svg>
